<?xml version="1.0" encoding="utf-8"?>
<!-- Generator: Adobe Illustrator 27.3.1, SVG Export Plug-In . SVG Version: 6.00 Build 0)  -->
<svg version="1.1" xmlns="http://www.w3.org/2000/svg" xmlns:xlink="http://www.w3.org/1999/xlink" x="0px" y="0px"
	 viewBox="0 0 1476.3 600" style="enable-background:new 0 0 1476.3 600;" xml:space="preserve">
<style type="text/css">
	.st0{fill:#231F20;}
	.st1{fill:#FFFFFF;}
	.st2{fill:#ED207A;}
	.st3{fill:#93298E;}
</style>
<g id="Design_Elements">
</g>
<g id="_x5B_YOUR_TEXT_HERE_x5D_">
	<g>
		<g>
			<path d="M1111.4,375.7c-12.8,0-23.9-2.6-33.5-7.8c-9.5-5.2-16.8-12.6-21.9-22.1c-5.1-9.6-7.7-20.9-7.7-34v-81h29.4v81
				c0,7.5,1.4,14,4.2,19.5c2.8,5.5,6.7,9.7,11.8,12.7c5.1,2.9,11,4.4,17.7,4.4c7.1,0,13.1-1.5,18.1-4.4c5-2.9,8.8-7.1,11.5-12.7
				c2.7-5.5,4.1-12,4.1-19.5v-81h29.6v81c0,12.9-2.6,24.2-7.8,33.8c-5.2,9.6-12.5,17-21.9,22.2
				C1135.5,373,1124.3,375.7,1111.4,375.7z"/>
			<path d="M1200.5,373.6V230.8h109.8v25.7h-80.2v32.7h52.9v24.7h-52.9v34.1h81v25.7H1200.5z"/>
		</g>
		<g>
			<polygon points="878.4,230.5 936.6,373.3 970.7,373.3 910.5,230.5 			"/>
			<polygon points="997.6,230.5 966.8,305.4 982.9,344.7 1030,230.5 			"/>
		</g>
		<circle cx="848.3" cy="301.4" r="19.5"/>
		<g>
			<path d="M439.4,236.4c-7.2-3.9-15.5-5.8-24.9-5.8h-71.6v25.4h29.6v-0.1h38.8c6.4,0,11.5,1.8,15.4,5.4c3.9,3.6,5.8,8.4,5.8,14.4
				c0,5.7-1.9,10.4-5.8,14c-3.9,3.6-9,5.4-15.4,5.4h-38.8v0h-29.6v78.4h29.6v-53.9h42c9.3,0,17.5-1.9,24.8-5.7
				c7.3-3.8,12.9-9,16.9-15.7c4-6.7,6-14.2,6-22.7c0-8.7-2-16.4-6-23.2C452.2,245.6,446.6,240.3,439.4,236.4z"/>
			<polygon points="480.8,256.7 529,256.7 529,373.4 558.6,373.4 558.6,256.7 606.5,256.7 606.5,230.6 480.8,230.6 			"/>
			<rect x="633.3" y="230.6" width="29.6" height="142.9"/>
			<polygon points="774.5,299.5 825.3,230.6 791.4,230.6 757.6,277.5 723.7,230.6 688.2,230.6 740,299.5 685.5,373.4 719.6,373.4 
				757,321.6 794.3,373.4 829.6,373.4 			"/>
		</g>
		<g>
			<path d="M269.7,278.1c0-8.6,0-36.2,0-45.2c-14.9-6.4-32.7-7.6-48.3-3.1l0.8,0.8C222.2,230.6,261.2,269.6,269.7,278.1z"/>
			<path d="M263,330.1c8.4,0,36.9,0,45.7,0c6.6-15.1,7.8-33.2,3.3-49C297.1,296.1,278,315.2,263,330.1z"/>
			<path d="M306.1,335.7c-22.1,0-50.6,0-72.6,0c7.8,7.8,26.1,26.1,34.1,34.1C284,363.5,297.8,351.2,306.1,335.7z"/>
			<path d="M190.7,300.8c9-9,20.8-20.8,29.8-29.8c-9.2,0-37.4,0-47,0c-7,15.5-8.2,34.2-3.4,50.4L190.7,300.8z"/>
			<path d="M207,366.4c0-22.6,0-51.5,0-73.9c-8,8-26.7,26.7-34.9,34.9C178.5,344.2,191.1,358.2,207,366.4z"/>
			<path d="M261.7,371.8c-15-15-34.2-34.2-49.1-49.1c0,8.8,0,37.1,0,46.4C227.7,375.5,245.9,376.5,261.7,371.8z"/>
			<path d="M310.1,275.1c-6.3-16.9-18.9-31.1-34.8-39.5c0,22.8,0,51.6,0,74.4C278,307.2,310.1,275.1,310.1,275.1z"/>
			<path d="M249.1,265.4c-7.5-7.5-26-26-33.8-33.8c-16.6,6.1-30.7,18.3-39.1,33.8C180.2,265.4,238.5,265.4,249.1,265.4z"/>
		</g>
	</g>
</g>
<g id="Layer_3">
</g>
</svg>
