<?xml version="1.0" encoding="utf-8"?>
<!-- Generator: Adobe Illustrator 27.3.1, SVG Export Plug-In . SVG Version: 6.00 Build 0)  -->
<svg version="1.1" xmlns="http://www.w3.org/2000/svg" xmlns:xlink="http://www.w3.org/1999/xlink" x="0px" y="0px"
	 viewBox="0 0 600 600" style="enable-background:new 0 0 600 600;" xml:space="preserve">
<style type="text/css">
	.st0{fill:#231F20;}
	.st1{fill:#FFFFFF;}
	.st2{fill:#ED207A;}
	.st3{fill:#93298E;}
</style>
<g id="Design_Elements">
</g>
<g id="_x5B_YOUR_TEXT_HERE_x5D_">
	<g>
		<g>
			<path d="M340.8,216.9c0-12.2,0-51.4,0-64.3c-21.2-9-46.5-10.8-68.7-4.5l1.2,1.2C273.3,149.3,328.8,204.8,340.8,216.9z"/>
			<path d="M331.4,290.8c11.9,0,52.5,0,65.1,0c9.4-21.5,11.1-47.2,4.7-69.7C379.8,242.5,352.6,269.6,331.4,290.8z"/>
			<path d="M392.6,298.8c-31.5,0-72,0-103.2,0c11,11,37.1,37.1,48.5,48.5C361.2,338.3,380.8,320.8,392.6,298.8z"/>
			<path class="st2" d="M228.5,249.2c12.8-12.8,29.6-29.6,42.4-42.4c-13,0-53.2,0-66.9,0c-9.9,22-11.7,48.6-4.8,71.7L228.5,249.2z"
				/>
			<path class="st3" d="M251.6,342.5c0-32.2,0-73.2,0-105.2c-11.3,11.3-38,38-49.6,49.6C211.1,310.8,229,330.8,251.6,342.5z"/>
			<path class="st3" d="M329.4,350.1c-21.4-21.4-48.6-48.6-69.8-69.8c0,12.6,0,52.8,0,66C281.2,355.4,307,356.8,329.4,350.1z"/>
			<path d="M398.4,212.6c-8.9-24-26.8-44.3-49.5-56.2c0,32.5,0,73.5,0,105.7C352.7,258.2,398.4,212.6,398.4,212.6z"/>
			<path class="st2" d="M311.6,198.9c-10.7-10.7-37-37-48-48c-23.6,8.7-43.6,26-55.7,48C213.6,198.9,296.5,198.9,311.6,198.9z"/>
		</g>
		<g>
			<g>
				<path d="M436,466.7c-4.7,0-8.7-0.9-12.2-2.8c-3.5-1.9-6.1-4.6-8-8.1c-1.9-3.5-2.8-7.6-2.8-12.4v-29.6h10.7v29.6
					c0,2.7,0.5,5.1,1.5,7.1c1,2,2.5,3.6,4.3,4.6c1.9,1.1,4,1.6,6.4,1.6c2.6,0,4.8-0.5,6.6-1.6c1.8-1.1,3.2-2.6,4.2-4.6
					c1-2,1.5-4.4,1.5-7.1v-29.6h10.8v29.6c0,4.7-0.9,8.8-2.8,12.3c-1.9,3.5-4.6,6.2-8,8.1C444.8,465.7,440.7,466.7,436,466.7z"/>
				<path d="M468.5,465.9v-52.2h40.1v9.4h-29.3v11.9h19.3v9h-19.3v12.4h29.6v9.4H468.5z"/>
			</g>
			<g>
				<polygon points="350.9,413.7 372.1,465.8 384.6,465.8 362.6,413.7 				"/>
				<polygon points="394.4,413.7 383.1,441 389.1,455.4 406.2,413.7 				"/>
			</g>
			<circle cx="339.9" cy="439.6" r="7.1"/>
			<g>
				<path d="M190.5,415.8c-2.6-1.4-5.7-2.1-9.1-2.1h-26.2v9.3h10.8v0h14.2c2.3,0,4.2,0.7,5.6,2c1.4,1.3,2.1,3.1,2.1,5.3
					c0,2.1-0.7,3.8-2.1,5.1c-1.4,1.3-3.3,2-5.6,2h-14.2v0h-10.8v28.6h10.8v-19.7h15.4c3.4,0,6.4-0.7,9.1-2.1
					c2.7-1.4,4.7-3.3,6.2-5.7c1.5-2.4,2.2-5.2,2.2-8.3c0-3.2-0.7-6-2.2-8.5C195.2,419.2,193.1,417.2,190.5,415.8z"/>
				<polygon points="205.6,423.2 223.2,423.2 223.2,465.9 234,465.9 234,423.2 251.6,423.2 251.6,413.7 205.6,413.7 				"/>
				<rect x="261.3" y="413.7" width="10.8" height="52.2"/>
				<polygon points="312.9,438.9 331.5,413.7 319.1,413.7 306.7,430.8 294.4,413.7 281.4,413.7 300.3,438.9 280.4,465.9 
					292.9,465.9 306.5,446.9 320.1,465.9 333,465.9 				"/>
			</g>
			<g>
				<path d="M128.5,431c0-3.1,0-13.2,0-16.5c-5.4-2.3-11.9-2.8-17.7-1.1l0.3,0.3C111.2,413.7,125.4,428,128.5,431z"/>
				<path d="M126.1,450c3.1,0,13.5,0,16.7,0c2.4-5.5,2.9-12.1,1.2-17.9C138.5,437.6,131.5,444.6,126.1,450z"/>
				<path d="M141.8,452.1c-8.1,0-18.5,0-26.5,0c2.8,2.8,9.5,9.5,12.4,12.4C133.7,462.2,138.8,457.8,141.8,452.1z"/>
				<path d="M99.7,439.4c3.3-3.3,7.6-7.6,10.9-10.9c-3.3,0-13.7,0-17.2,0c-2.5,5.6-3,12.5-1.2,18.4L99.7,439.4z"/>
				<path d="M105.6,463.3c0-8.3,0-18.8,0-27c-2.9,2.9-9.8,9.8-12.8,12.8C95.2,455.2,99.8,460.3,105.6,463.3z"/>
				<path d="M125.6,465.3c-5.5-5.5-12.5-12.5-17.9-17.9c0,3.2,0,13.5,0,16.9C113.2,466.6,119.8,467,125.6,465.3z"/>
				<path d="M143.3,430c-2.3-6.2-6.9-11.4-12.7-14.4c0,8.3,0,18.9,0,27.2C131.6,441.7,143.3,430,143.3,430z"/>
				<path d="M121,426.4c-2.8-2.8-9.5-9.5-12.3-12.3c-6.1,2.2-11.2,6.7-14.3,12.3C95.8,426.4,117.1,426.4,121,426.4z"/>
			</g>
		</g>
	</g>
</g>
<g id="Layer_3">
</g>
</svg>
